<svg xmlns="http://www.w3.org/2000/svg" viewBox="0 0 300.75 210"><defs><style>.cls-1{fill:#414042;}.cls-1,.cls-2,.cls-4{stroke:#414042;stroke-miterlimit:10;}.cls-2{font-size:60.78px;font-family:HeroNew-Light, Hero New;font-weight:300;letter-spacing:-0.01em;}.cls-2,.cls-4{fill:#fff;stroke-width:0.5px;}.cls-3{letter-spacing:-0.08em;}</style></defs><g id="Layer_2" data-name="Layer 2"><g id="Layer_1-2" data-name="Layer 1"><path class="cls-1" d="M164.05,181.09c-75.86-46.11-92.71-57.54-92-71,1-19.89,40.47-21.87,46.69-59.08.76-4.55,2.12-12.7-.52-21.11C106.22-8.36,27.9,1,12.07,2.87l-2.3.29a17.29,17.29,0,0,0-2.52,1.9,18.69,18.69,0,0,0-2,2.07l-.36.44L1.78,13.82l-1.28,5v170.1q.78,3.52,1.57,7A21.8,21.8,0,0,0,4,200a27.63,27.63,0,0,0,2.42,3.15h0a19.48,19.48,0,0,0,2.46,1.71A17.71,17.71,0,0,0,21.19,207q16.06.45,32.26.76,78.41,1.5,154.11-.34C195.2,200,180.54,191.12,164.05,181.09Z"/><text class="cls-2" transform="translate(0.65 137.23)">N<tspan class="cls-3" x="47.35" y="0">AT</tspan><tspan x="116.52" y="0">ALIE</tspan></text><path class="cls-4" d="M7.23,155.89h11.9l1.48,7.48h.19a15.86,15.86,0,0,1,14-8,16.33,16.33,0,0,1,3.9.36v13.52a17.23,17.23,0,0,0-4.27-.45c-6.23,0-12.18,3.24-12.18,12.62v26.86h-15Z"/><path class="cls-4" d="M40.58,182c0-16.53,12.23-27.8,27.8-27.8,15.76,0,27.8,11.27,27.8,27.8,0,16.33-12,27.8-27.8,27.8C52.81,209.75,40.58,198.38,40.58,182Z"/><path class="cls-4" d="M179.3,172.09v36.17h-15V176.35c0-5.73-1.93-8.5-7.14-8.5-5,0-7.82,3.63-7.82,7.93v32.48h-15V176.35c0-5.73-1.95-8.5-7.19-8.5s-7.78,4-7.78,8.6v31.81h-15V155.89h11.76l1.52,7.48h.28c2.75-4.76,7.3-8.84,14.6-8.84s12,3.59,14.7,9.13c3.15-5.2,7.67-8.58,13.56-9.07C170.89,153.75,179.3,162.07,179.3,172.09Z"/><path class="cls-4" d="M187.41,182.26c0-16.73,11.44-27.7,23.26-27.7a19.89,19.89,0,0,1,17.2,9.36l1.51-8h12.77v52.37H229.38l-1.51-8a19.69,19.69,0,0,1-17.2,9.36C198.85,209.58,187.41,198.62,187.41,182.26Z"/><path class="cls-4" d="M300.5,173.54v34.72h-15V177.31c0-6.5-2.93-9.46-8.59-9.46s-9.37,3.82-9.37,9.08v31.33h-15V155.89H264.4l1.52,7.48h.28a18.49,18.49,0,0,1,15.87-8.83C293.47,154.54,300.5,161.64,300.5,173.54Z"/></g></g></svg>