<svg xmlns="http://www.w3.org/2000/svg" xmlns:xlink="http://www.w3.org/1999/xlink" viewBox="0 0 302.5 212.91"><defs><style>.cls-1{fill:#fff;stroke-miterlimit:10;stroke-width:5px;stroke:url(#lime_green_gradient);}.cls-2{font-size:60.78px;fill:#231f20;font-family:HeroNew-Light, Hero New;font-weight:300;letter-spacing:-0.01em;}.cls-3{letter-spacing:-0.08em;}.cls-4{fill:#414042;}</style><linearGradient id="lime_green_gradient" y1="106.45" x2="218.22" y2="106.45" gradientUnits="userSpaceOnUse"><stop offset="0" stop-color="#f9ed32"/><stop offset="0.06" stop-color="#f4eb30"/><stop offset="0.32" stop-color="#e4e429"/><stop offset="0.62" stop-color="#dae024"/><stop offset="1" stop-color="#d7df23"/></linearGradient></defs><g id="Layer_2" data-name="Layer 2"><g id="Layer_1-2" data-name="Layer 1"><path class="cls-1" d="M166.05,183.09c-75.86-46.11-92.71-57.54-92-71,1-19.89,40.47-21.87,46.69-59.08.76-4.55,2.12-12.7-.52-21.11C108.22-6.36,29.9,3,14.07,4.87l-2.3.29a17.29,17.29,0,0,0-2.52,1.9,18.69,18.69,0,0,0-2,2.07l-.36.44L3.78,15.82l-1.28,5v170.1q.78,3.52,1.57,7A21.8,21.8,0,0,0,6,202a27.63,27.63,0,0,0,2.42,3.15h0a19.48,19.48,0,0,0,2.46,1.71A17.71,17.71,0,0,0,23.19,209q16.06.45,32.26.76,78.41,1.5,154.11-.34C197.2,202,182.54,193.12,166.05,183.09Z"/><text class="cls-2" transform="translate(2.65 139.23)">N<tspan class="cls-3" x="47.35" y="0">AT</tspan><tspan x="116.52" y="0">ALIE</tspan></text><path class="cls-4" d="M9.23,157.89h11.9l1.48,7.48h.19a15.86,15.86,0,0,1,14-8,16.33,16.33,0,0,1,3.9.36v13.52a17.23,17.23,0,0,0-4.27-.45c-6.23,0-12.18,3.24-12.18,12.62v26.86h-15Z"/><path class="cls-4" d="M42.58,184c0-16.53,12.23-27.8,27.8-27.8,15.76,0,27.8,11.27,27.8,27.8,0,16.33-12,27.8-27.8,27.8C54.81,211.75,42.58,200.38,42.58,184Z"/><path class="cls-4" d="M181.3,174.09v36.17h-15V178.35c0-5.73-1.93-8.5-7.14-8.5-5,0-7.82,3.63-7.82,7.93v32.48h-15V178.35c0-5.73-1.95-8.5-7.19-8.5s-7.78,4-7.78,8.6v31.81h-15V157.89h11.76l1.52,7.48h.28c2.75-4.76,7.3-8.84,14.6-8.84s12,3.59,14.7,9.13c3.15-5.2,7.67-8.58,13.56-9.07C172.89,155.75,181.3,164.07,181.3,174.09Z"/><path class="cls-4" d="M189.41,184.26c0-16.73,11.44-27.7,23.26-27.7a19.89,19.89,0,0,1,17.2,9.36l1.51-8h12.77v52.37H231.38l-1.51-8a19.69,19.69,0,0,1-17.2,9.36C200.85,211.58,189.41,200.62,189.41,184.26Z"/><path class="cls-4" d="M302.5,175.54v34.72h-15V179.31c0-6.5-2.93-9.46-8.59-9.46s-9.37,3.82-9.37,9.08v31.33h-15V157.89H266.4l1.52,7.48h.28a18.49,18.49,0,0,1,15.87-8.83C295.47,156.54,302.5,163.64,302.5,175.54Z"/></g></g></svg>