<svg xmlns="http://www.w3.org/2000/svg" viewBox="0 0 25.21 25.56"><defs><style>.cls-1{fill:#414042;}</style></defs><g id="Layer_2" data-name="Layer 2"><g id="Layer_1-2" data-name="Layer 1"><path class="cls-1" d="M19.91,22.2c-6.75-4.35-10.12-6.56-10-8.77.14-2.46,3.77-3,4.48-7.22a5.19,5.19,0,0,0-.07-2.6C12.87-1.09,3.34.06,1.41.29l-.28,0A1.75,1.75,0,0,0,.82.56L.58.81.51.9l-.35.74L0,2.25V23.16L.19,24a2.61,2.61,0,0,0,.23.49,3,3,0,0,0,.3.39h0a1.61,1.61,0,0,0,.3.21,2.14,2.14,0,0,0,1.5.27l3.93.09q9.54.18,18.76,0C23.93,24.7,22.09,23.6,19.91,22.2Z"/></g></g></svg>